<?xml version="1.0" encoding="UTF-8"?>
<svg id="Layer_1" data-name="Layer 1" xmlns="http://www.w3.org/2000/svg" viewBox="0 0 18 16">
  <defs>
    <style>
      .cls-1 {
        fill: #3097d1;
      }
    </style>
  </defs>
  <path class="cls-1" d="m.94,7.14h0s6.86,4.12,6.86,4.12c.82.49,1.84.49,2.66,0l6.86-4.12c.65-.39.86-1.24.47-1.89-.12-.19-.28-.36-.47-.47L10.47.66c-.82-.49-1.84-.49-2.66,0L.94,4.78c-.65.39-.86,1.24-.47,1.89.12.19.28.36.47.47ZM8.95,2.56c.12-.07.26-.07.38,0l5.66,3.4-5.66,3.4c-.12.07-.26.07-.38,0l-5.66-3.4,5.66-3.4Z"/>
  <path class="cls-1" d="m16.63,9.33c-.2,0-.4.05-.57.16l-6.24,3.74c-.58.35-1.32.35-1.9,0l-6.24-3.74c-.52-.32-1.21-.14-1.52.38-.1.17-.16.37-.16.57,0,.39.2.75.54.95l6.24,3.74c1.29.77,2.9.77,4.18,0l6.24-3.74c.33-.2.54-.56.54-.95,0-.61-.5-1.11-1.11-1.11Z"/>
</svg>