<?xml version="1.0" encoding="UTF-8"?>
<svg id="Layer_1" data-name="Layer 1" xmlns="http://www.w3.org/2000/svg" viewBox="0 0 32 32">
  <defs>
    <style>
      .cls-1 {
        fill: #36f;
      }
    </style>
  </defs>
  <g id="Group_2" data-name="Group 2">
    <path id="Path_13" data-name="Path 13" class="cls-1" d="m1.67,14.48h0l12.21,7.33c1.46.87,3.28.87,4.73,0l12.2-7.33c1.16-.7,1.53-2.2.84-3.36-.21-.34-.49-.63-.84-.84l-12.19-7.33c-1.46-.87-3.28-.87-4.73,0L1.67,10.28c-1.16.7-1.53,2.2-.84,3.36.21.34.49.63.84.84ZM15.92,6.33c.21-.12.47-.12.68,0l10.07,6.05-10.07,6.05c-.21.12-.47.12-.68,0l-10.07-6.05,10.07-6.05h0Z"/>
    <path id="Path_14" data-name="Path 14" class="cls-1" d="m29.58,18.36c-.36,0-.71.09-1.01.28l-11.1,6.65c-1.04.62-2.34.62-3.38,0l-11.1-6.65c-.93-.56-2.14-.26-2.7.68,0,0,0,0,0,0C.1,19.63,0,19.98,0,20.33c0,.69.36,1.34.96,1.69l11.1,6.65c2.29,1.37,5.15,1.37,7.44,0l11.1-6.65c.94-.55,1.25-1.76.69-2.7-.36-.6-1.01-.97-1.71-.97h0Z"/>
  </g>
</svg>