<?xml version="1.0" encoding="UTF-8"?>
<svg id="Layer_1" data-name="Layer 1" xmlns="http://www.w3.org/2000/svg" viewBox="0 0 148 16">
  <defs>
    <style>
      .cls-1 {
        fill: #3097d1;
      }

      .cls-2 {
        fill: #222628;
      }
    </style>
  </defs>
  <g>
    <path class="cls-2" d="m33.19,12.59c1.5,0,3.03-.85,3.03-.85l.77,1.49s-1.8,1.51-4.11,1.51c-3.1,0-4.68-1.8-4.68-4.86s1.78-5.22,4.81-5.22c2.68,0,4.09,1.66,4.09,4.23,0,.68-.11,1.35-.11,1.35l-5.98.05c.11,1.44.94,2.29,2.18,2.29Zm-2.14-3.96h3.26c0-1.03-.43-1.8-1.48-1.8s-1.64.74-1.78,1.8Z"/>
    <path class="cls-2" d="m47.93,6.38l-1.12.23-2.07,3.1,2.03,3.06,1.33.36v1.44h-4.9v-1.44l.56-.2-.95-1.58-1.94,3.22h-3.06v-1.44l1.35-.36,1.98-2.97-2.18-3.19-.97-.23v-1.44l4.66-.09v1.53l-.54.11.94,1.58,1.87-3.13,3.01-.09v1.53Z"/>
    <path class="cls-2" d="m54.65,13.4s-1.39,1.35-2.92,1.35c-1.75,0-2.81-1.03-2.81-2.83,0-2.12,1.6-2.97,4.34-2.97h1.26v-.99c0-.92-.49-1.31-1.39-1.31s-1.58.27-1.58.27l-.27,1.13h-1.62l-.13-2.66s2.18-.72,3.91-.72c2.74,0,3.78.95,3.78,3.56v4.45l1.35.32v1.44l-3.6.13-.32-1.17Zm-2.05-.67c.95,0,1.93-1.04,1.93-1.04v-1.21h-1.03c-1.4,0-1.96.36-1.96,1.17,0,.68.38,1.08,1.06,1.08Z"/>
    <path class="cls-2" d="m76.45,13.13v1.44h-4.88v-1.44l.95-.45v-4.29c0-1.08-.32-1.48-1.12-1.48-.63,0-1.4.4-1.93.94v4.83l.94.45v1.44h-4.57v-1.44l.94-.45v-4.29c0-1.1-.32-1.48-1.12-1.48-.65,0-1.46.45-1.93.94v4.83l.95.45v1.44h-5.04v-1.44l1.39-.45v-5.85l-1.37-.45v-1.44l3.76-.09.13,1.28s1.57-1.46,3.15-1.46c1.28,0,2.07.59,2.48,1.55.31-.31,1.66-1.55,3.26-1.55,1.89,0,2.77,1.22,2.77,3.24v4.77l1.22.45Z"/>
    <path class="cls-2" d="m80.85,12.77c.99,0,1.48-.31,1.48-.88,0-1.48-4.81-.94-4.81-4.14,0-2.25,1.8-3.08,3.71-3.08,1.62,0,3.35.54,3.35.54l-.07,2.7h-1.53l-.27-1.08s-.52-.18-1.24-.18c-.77,0-1.24.32-1.24.92,0,1.46,4.81.83,4.81,3.94,0,2.07-1.67,3.24-4.14,3.24-1.71,0-3.31-.4-3.31-.4v-2.94h1.62l.14,1.17s.63.18,1.51.18Z"/>
    <path class="cls-2" d="m88.38,11.55c.99,0,1.51.59,1.51,1.62s-.74,1.64-1.55,1.64c-.99,0-1.51-.59-1.51-1.64s.74-1.62,1.55-1.62Z"/>
    <path class="cls-2" d="m95.02,12.77c.99,0,1.48-.31,1.48-.88,0-1.48-4.81-.94-4.81-4.14,0-2.25,1.8-3.08,3.71-3.08,1.62,0,3.35.54,3.35.54l-.07,2.7h-1.53l-.27-1.08s-.52-.18-1.24-.18c-.77,0-1.24.32-1.24.92,0,1.46,4.81.83,4.81,3.94,0,2.07-1.67,3.24-4.14,3.24-1.71,0-3.31-.4-3.31-.4v-2.94h1.62l.14,1.17s.63.18,1.51.18Z"/>
    <path class="cls-2" d="m101.77,11.24v-4.14h-1.67v-1.75l1.67-.23v-2.48l2.7-.49v2.97h2.52v1.98h-2.52v3.96c0,1.15.2,1.62.95,1.62.49,0,1.19-.29,1.42-.41l.65,1.37c-.88.65-1.89,1.12-3.06,1.12-2.07,0-2.67-1.44-2.67-3.51Z"/>
    <path class="cls-2" d="m107.94,6.38v-1.44l4.14-.09v6.21c0,.99.29,1.44,1.1,1.44,1.17,0,2.04-.97,2.04-.97v-4.7l-1.44-.45v-1.44l4.14-.09v7.83l1.44.36v1.4l-3.8.13-.18-1.26s-1.44,1.44-3.15,1.44c-1.8,0-2.84-1.21-2.84-3.22v-4.7l-1.44-.45Z"/>
    <path class="cls-2" d="m126.84,13.62c-.25.25-1.17,1.13-2.72,1.13-2.52,0-3.69-1.84-3.69-4.81,0-3.38,1.62-5.28,4.92-5.28.43,0,.95.09,1.35.18v-2.29l-1.44-.36V.76l4.14-.14v12.03l1.44.36v1.44l-3.84.13-.16-.95Zm-1.55-6.79c-1.53,0-2.07,1.17-2.07,2.97s.5,2.79,1.73,2.79c1.15,0,1.75-1.03,1.75-1.03v-4.47c-.34-.16-.88-.27-1.4-.27Z"/>
    <path class="cls-2" d="m135.97,12.68l1.26.45v1.44h-5.4v-1.44l1.44-.45v-5.85l-1.44-.45v-1.44l4.14-.09v7.83Zm-1.48-12.42c.94,0,1.51.49,1.51,1.62,0,1.06-.77,1.64-1.51,1.64-.97,0-1.55-.58-1.55-1.64s.74-1.62,1.55-1.62Z"/>
    <path class="cls-2" d="m147.8,9.53c0,3.24-1.89,5.22-4.81,5.22s-4.59-1.53-4.59-4.95c0-3.24,1.93-5.13,4.86-5.13s4.54,1.76,4.54,4.86Zm-6.61.18c0,1.98.58,2.88,1.89,2.88s1.93-.81,1.93-2.97c0-1.84-.54-2.79-1.84-2.79s-1.98.72-1.98,2.88Z"/>
  </g>
  <g>
    <path class="cls-1" d="m.94,7.17h0s6.86,4.12,6.86,4.12c.82.49,1.84.49,2.66,0l6.86-4.12c.65-.39.86-1.24.47-1.89-.12-.19-.28-.36-.47-.47L10.47.69c-.82-.49-1.84-.49-2.66,0L.94,4.81c-.65.39-.86,1.24-.47,1.89.12.19.28.36.47.47ZM8.95,2.59c.12-.07.26-.07.38,0l5.66,3.4-5.66,3.4c-.12.07-.26.07-.38,0l-5.66-3.4,5.66-3.4Z"/>
    <path class="cls-1" d="m16.63,9.35c-.2,0-.4.05-.57.16l-6.24,3.74c-.58.35-1.32.35-1.9,0l-6.24-3.74c-.52-.32-1.21-.14-1.52.38-.1.17-.16.37-.16.57,0,.39.2.75.54.95l6.24,3.74c1.29.77,2.9.77,4.18,0l6.24-3.74c.33-.2.54-.56.54-.95,0-.61-.5-1.11-1.11-1.11Z"/>
  </g>
</svg>