<?xml version="1.0" encoding="UTF-8"?>
<svg id="Layer_1" data-name="Layer 1" xmlns="http://www.w3.org/2000/svg" viewBox="0 0 229.33 24.9">
  <defs>
    <style>
      .cls-1 {
        fill: #36f;
      }

      .cls-2 {
        fill: #18213c;
      }
    </style>
  </defs>
  <g id="logo">
    <g id="Group_1" data-name="Group 1">
      <path id="Path_1" data-name="Path 1" class="cls-2" d="m51.5,19.13c1.64-.09,3.25-.54,4.7-1.32l1.19,2.31c-1.83,1.43-4.06,2.25-6.38,2.34-4.81,0-7.26-2.79-7.26-7.54s2.76-8.1,7.46-8.1c4.16,0,6.35,2.58,6.35,6.56,0,.7-.06,1.4-.17,2.1l-9.28.08c.17,2.23,1.46,3.55,3.38,3.55h0Zm-3.32-6.15h5.06c0-1.6-.67-2.79-2.3-2.79s-2.55,1.15-2.76,2.79h0Z"/>
      <path id="Path_2" data-name="Path 2" class="cls-2" d="m74.37,9.5l-1.74.36-3.21,4.81,3.15,4.75,2.06.56v2.23h-7.6v-2.23l.87-.31-1.47-2.45-3.01,5h-4.75v-2.24l2.1-.56,3.07-4.61-3.38-4.95-1.51-.36v-2.24l7.23-.14v2.37l-.84.17,1.46,2.45,2.9-4.86,4.67-.14v2.37h0Z"/>
      <path id="Path_3" data-name="Path 3" class="cls-2" d="m84.8,20.39s-2.16,2.09-4.53,2.09c-2.2.21-4.16-1.41-4.36-3.62-.02-.26-.02-.52,0-.77,0-3.29,2.48-4.61,6.73-4.61h1.96v-1.54c0-1.43-.76-2.03-2.16-2.03-.84,0-1.66.14-2.45.42l-.42,1.75h-2.51l-.2-4.13c1.96-.64,4-1.01,6.06-1.12,4.25,0,5.86,1.47,5.86,5.52v6.9l2.1.5v2.24l-5.59.2-.5-1.82h0Zm-3.18-1.04c1.47,0,2.99-1.61,2.99-1.61v-1.88h-1.6c-2.17,0-3.04.56-3.04,1.81-.09.83.5,1.58,1.33,1.67.1.01.21.01.32,0h0Z"/>
      <path id="Path_4" data-name="Path 4" class="cls-2" d="m118.62,19.97v2.23h-7.57v-2.23l1.47-.7v-6.66c0-1.68-.5-2.3-1.74-2.3-1.14.1-2.21.62-2.99,1.46v7.5l1.46.7v2.23h-7.09v-2.23l1.46-.7v-6.66c0-1.71-.5-2.3-1.74-2.3-1.14.11-2.21.63-3,1.46v7.5l1.47.7v2.23h-7.82v-2.23l2.16-.7v-9.08l-2.13-.7v-2.23l5.83-.14.2,1.99s2.44-2.27,4.89-2.27c1.67-.13,3.23.85,3.85,2.4,1.34-1.39,3.14-2.24,5.06-2.4,2.93,0,4.3,1.89,4.3,5.03v7.4l1.89.7h.03Z"/>
      <path id="Path_5" data-name="Path 5" class="cls-2" d="m125.45,19.41c1.54,0,2.3-.48,2.3-1.36,0-2.3-7.46-1.46-7.46-6.42,0-3.49,2.79-4.78,5.76-4.78,1.76.05,3.51.33,5.2.84l-.12,4.19h-2.37l-.42-1.68c-.62-.19-1.27-.28-1.92-.28-1.19,0-1.92.5-1.92,1.43,0,2.27,7.46,1.29,7.46,6.11,0,3.21-2.59,5.03-6.42,5.03-1.73-.02-3.45-.23-5.14-.62v-4.56h2.51l.22,1.82c.77.19,1.55.28,2.34.28v.02Z"/>
      <path id="Path_6" data-name="Path 6" class="cls-2" d="m137.13,17.52c1.21-.1,2.26.8,2.36,2.01.01.17,0,.34-.02.5.08,1.32-.93,2.46-2.25,2.54-.05,0-.1,0-.15,0-1.54,0-2.34-.91-2.34-2.55-.09-1.3.9-2.42,2.2-2.51.07,0,.14,0,.21,0Z"/>
      <path id="Path_7" data-name="Path 7" class="cls-2" d="m147.44,19.41c1.54,0,2.3-.48,2.3-1.36,0-2.3-7.46-1.46-7.46-6.42,0-3.49,2.79-4.78,5.76-4.78,1.76.05,3.51.33,5.2.84l-.11,4.19h-2.37l-.42-1.68c-.62-.19-1.27-.28-1.92-.28-1.19,0-1.92.5-1.92,1.43,0,2.27,7.46,1.29,7.46,6.11,0,3.21-2.59,5.03-6.42,5.03-1.73-.02-3.45-.23-5.13-.62v-4.56h2.51l.22,1.82c.77.19,1.55.28,2.34.28l-.02.02Z"/>
      <path id="Path_8" data-name="Path 8" class="cls-2" d="m157.91,17.04v-6.42h-2.59v-2.72l2.59-.36v-3.85l4.19-.76v4.61h3.91v3.07h-3.91v6.14c0,1.78.31,2.51,1.47,2.51.77-.07,1.51-.28,2.2-.64l1.01,2.13c-1.35,1.08-3.02,1.69-4.75,1.74-3.21,0-4.14-2.23-4.14-5.45l.02-.02Z"/>
      <path id="Path_9" data-name="Path 9" class="cls-2" d="m167.48,9.5v-2.23l6.42-.14v9.64c0,1.54.45,2.23,1.71,2.23,1.21-.08,2.34-.62,3.17-1.51v-7.29l-2.24-.7v-2.23l6.42-.14v12.15l2.23.56v2.17l-5.9.2-.28-1.95c-1.32,1.29-3.05,2.08-4.89,2.23-2.79,0-4.41-1.88-4.41-5v-7.29l-2.23-.7h0Z"/>
      <path id="Path_10" data-name="Path 10" class="cls-2" d="m196.81,20.73c-1.11,1.13-2.64,1.76-4.22,1.75-3.91,0-5.73-2.85-5.73-7.46,0-5.24,2.51-8.19,7.63-8.19.71.02,1.41.11,2.1.28v-3.55l-2.23-.56V.78l6.42-.22v18.67l2.23.56v2.23l-5.96.2-.25-1.47h0Zm-2.4-10.54c-2.37,0-3.21,1.81-3.21,4.61s.78,4.33,2.68,4.33c1.11-.05,2.13-.65,2.71-1.6v-6.93c-.69-.28-1.43-.43-2.17-.42h-.01Z"/>
      <path id="Path_11" data-name="Path 11" class="cls-2" d="m210.98,19.27l1.96.7v2.23h-8.38v-2.24l2.23-.7v-9.08l-2.23-.7v-2.23l6.42-.14v12.15Zm-2.3-19.27c1.46,0,2.34.76,2.34,2.51.09,1.32-.91,2.46-2.23,2.54-.04,0-.07,0-.11,0-1.24.09-2.32-.83-2.42-2.07-.01-.16,0-.31.01-.47-.09-1.29.88-2.42,2.18-2.51.08,0,.15,0,.23,0Z"/>
      <path id="Path_12" data-name="Path 12" class="cls-2" d="m229.33,14.38c0,5.03-2.93,8.1-7.46,8.1s-7.12-2.37-7.12-7.68c0-5.03,2.99-7.96,7.54-7.96s7.04,2.73,7.04,7.54Zm-10.26.28c0,3.07.9,4.47,2.93,4.47s2.99-1.26,2.99-4.61c0-2.85-.84-4.33-2.85-4.33s-3.07,1.12-3.07,4.47Z"/>
    </g>
    <g id="Group_2" data-name="Group 2">
      <path id="Path_13" data-name="Path 13" class="cls-1" d="m1.46,11.62h0l10.64,6.39c1.27.76,2.86.76,4.13,0l10.64-6.39c1.01-.61,1.33-1.92.73-2.93-.18-.3-.43-.55-.73-.73L16.25,1.57c-1.27-.76-2.86-.76-4.13,0L1.46,7.96c-1.01.61-1.33,1.92-.73,2.93.18.3.43.55.73.73Zm12.43-7.11c.18-.11.41-.11.59,0l8.78,5.28-8.78,5.28c-.18.11-.41.11-.59,0l-8.78-5.28,8.78-5.28h0Z"/>
      <path id="Path_14" data-name="Path 14" class="cls-1" d="m25.8,15.01c-.31,0-.62.08-.88.25l-9.68,5.8c-.91.54-2.04.54-2.95,0L2.61,15.26c-.81-.49-1.87-.22-2.36.59,0,0,0,0,0,0C.09,16.11,0,16.42,0,16.73c0,.61.32,1.17.84,1.47l9.68,5.8c2,1.19,4.49,1.19,6.49,0l9.68-5.8c.82-.48,1.09-1.54.6-2.36-.31-.53-.88-.85-1.49-.84h0Z"/>
    </g>
  </g>
</svg>