<?xml version="1.0" standalone="no"?>
<!DOCTYPE svg PUBLIC "-//W3C//DTD SVG 20010904//EN"
 "http://www.w3.org/TR/2001/REC-SVG-20010904/DTD/svg10.dtd">
<svg version="1.0" xmlns="http://www.w3.org/2000/svg"
 width="700.000000pt" height="700.000000pt" viewBox="0 0 700.000000 700.000000"
 preserveAspectRatio="xMidYMid meet">
<metadata>
Created by potrace 1.14, written by Peter Selinger 2001-2017
</metadata>
<g transform="translate(0.000000,700.000000) scale(0.100000,-0.100000)"
fill="#000000" stroke="none">
<path d="M3549 6566 c-2 -2 -40 -6 -84 -10 -92 -7 -213 -36 -282 -66 -96 -43
-156 -78 -648 -373 -275 -165 -512 -307 -528 -316 -15 -9 -199 -119 -410 -246
-210 -126 -390 -234 -400 -240 -9 -5 -211 -126 -447 -268 -467 -280 -515 -315
-578 -434 -69 -130 -84 -314 -35 -433 4 -8 7 -17 7 -20 9 -37 65 -119 121
-175 63 -64 135 -109 770 -490 385 -231 712 -426 727 -435 14 -8 141 -85 282
-170 141 -85 264 -159 274 -165 16 -9 93 -55 134 -80 34 -21 200 -120 216
-130 9 -6 100 -60 202 -121 222 -133 266 -156 366 -190 116 -39 214 -53 349
-49 131 3 257 31 370 80 33 14 241 135 463 268 221 133 415 249 430 258 23 13
380 228 464 278 96 58 197 119 228 137 679 406 1232 743 1267 771 113 93 182
234 188 385 4 107 -13 188 -61 278 -32 61 -107 148 -159 184 -19 13 -1056 639
-1120 676 -16 9 -106 63 -200 120 -93 57 -179 108 -190 114 -11 6 -128 76
-260 156 -132 80 -248 149 -258 155 -9 5 -80 48 -157 95 -77 47 -148 90 -157
95 -10 6 -103 61 -208 124 -104 63 -218 127 -252 143 -90 40 -220 76 -305 83
-40 3 -82 8 -94 10 -12 3 -23 3 -25 1z m76 -886 c22 -11 61 -32 86 -47 26 -15
376 -226 778 -468 401 -242 738 -445 748 -450 79 -45 593 -357 593 -361 0 -2
-10 -9 -22 -14 -13 -6 -63 -35 -113 -66 -49 -31 -99 -62 -110 -68 -11 -6 -283
-168 -603 -361 -1484 -892 -1373 -828 -1422 -829 -41 -1 -64 11 -244 119 -110
66 -217 131 -240 144 -35 20 -393 234 -436 261 -111 68 -258 157 -270 163 -8
4 -31 17 -52 30 -20 12 -261 157 -536 322 l-499 300 48 33 c27 17 50 32 53 32
3 0 48 27 101 60 53 33 99 60 101 60 3 0 29 15 57 34 29 18 261 158 517 311
256 152 476 285 490 294 14 9 140 86 280 170 140 83 262 156 270 161 8 5 52
32 98 60 46 27 86 50 88 50 3 0 25 14 49 30 80 55 124 62 190 30z"/>
<path d="M330 3035 c-145 -40 -249 -134 -305 -275 -20 -53 -28 -177 -14 -239
16 -70 60 -151 112 -202 36 -36 308 -204 1045 -646 548 -329 1001 -600 1007
-603 6 -3 84 -50 175 -105 91 -55 174 -105 185 -112 11 -7 27 -15 35 -19 8 -4
26 -15 40 -24 144 -97 420 -200 611 -227 107 -16 417 -9 519 10 120 23 291 80
395 130 63 30 1557 918 1705 1012 19 12 222 134 450 271 228 136 436 265 462
286 156 129 196 373 90 547 -33 54 -106 125 -160 154 -109 59 -249 72 -352 31
-37 -14 -629 -361 -750 -439 -33 -21 -1556 -935 -1631 -979 -209 -121 -235
-133 -345 -160 -81 -20 -234 -18 -320 4 -74 19 -185 67 -234 101 -19 13 -859
516 -1027 615 -17 11 -103 62 -190 114 -87 52 -166 99 -175 105 -10 5 -70 42
-134 80 -63 39 -123 75 -133 80 -9 6 -65 39 -125 75 -59 36 -121 73 -138 83
-17 10 -137 82 -267 160 -130 78 -261 150 -291 161 -66 23 -179 28 -240 11z"/>
</g>
</svg>
